<svg width="102" height="93" viewBox="0 0 102 93" fill="none" xmlns="http://www.w3.org/2000/svg">
<path d="M93.6248 23.6528L79.2114 81.5202C78.7112 83.6128 77.5176 85.4746 75.8246 86.8025C74.1317 88.1305 72.0392 88.8464 69.8877 88.8338H13.6883C7.23006 88.8338 2.61093 82.5039 4.53557 76.3023L22.5416 18.4776C23.1433 16.5166 24.3558 14.7992 26.0023 13.5759C27.6488 12.3525 29.6431 11.6873 31.6943 11.6772H84.301C88.3642 11.6772 91.743 14.1579 93.1544 17.5795C93.967 19.4186 94.1381 21.5143 93.6248 23.6528Z" stroke="#FCE9D5" stroke-width="6.41545" stroke-miterlimit="10"/>
<path d="M68.2617 88.8333H88.7056C94.2229 88.8333 98.5426 84.1715 98.1577 78.6542L93.9235 20.4018M41.2312 22.0271L45.6793 3.55058M69.8869 22.0699L73.9073 3.50781M32.7628 46.0637H66.9786M28.4858 63.1715H62.7016" stroke="#FCE9D5" stroke-width="6.41545" stroke-miterlimit="10" stroke-linecap="round" stroke-linejoin="round"/>
</svg>
