<svg width="67" height="93" viewBox="0 0 67 93" fill="none" xmlns="http://www.w3.org/2000/svg">
<path d="M33.4784 41.9208C33.0477 41.8778 32.5308 41.8778 32.0571 41.9208C27.1135 41.753 22.4293 39.6675 18.9966 36.1062C15.5638 32.5448 13.652 27.7871 13.666 22.8407C13.666 12.2885 22.194 3.71746 32.7893 3.71746C35.2977 3.67221 37.7906 4.12149 40.1254 5.03963C42.4602 5.95778 44.5914 7.32681 46.3971 9.06857C48.2029 10.8103 49.6479 12.8907 50.6496 15.1909C51.6514 17.4911 52.1903 19.9661 52.2355 22.4746C52.2808 24.983 51.8315 27.4759 50.9133 29.8107C49.9952 32.1455 48.6262 34.2767 46.8844 36.0824C45.1426 37.8882 43.0623 39.3332 40.7621 40.3349C38.4618 41.3367 35.9869 41.8756 33.4784 41.9208ZM11.9432 57.8138C1.52022 64.7912 1.52022 76.1617 11.9432 83.096C23.7876 91.021 43.2123 91.021 55.0566 83.096C65.4796 76.1186 65.4796 64.7481 55.0566 57.8138C43.2553 49.9319 23.8306 49.9319 11.9432 57.8138Z" stroke="#FCE9D5" stroke-width="6.46054" stroke-linecap="round" stroke-linejoin="round"/>
</svg>
