<svg width="178" height="63" viewBox="0 0 178 63" fill="none" xmlns="http://www.w3.org/2000/svg">
<g filter="url(#filter0_d_286_648)">
<path d="M66.617 13.0947C68.8617 13.2308 70.0181 12.7886 70.0861 11.7683C69.9841 10.833 68.8277 10.3908 66.617 10.4418V13.0947ZM59.7807 24.3184V3.91173H67.4332C74.1164 3.91173 77.3475 6.53058 77.1264 11.7683C76.9223 16.6999 73.4532 19.1147 66.719 19.0126V24.3184H59.7807ZM80.6463 3.93723H89.4212L95.2371 24.1653H87.8397L86.7683 21.2574H83.4012L82.3809 24.1143H74.1162L80.6463 3.93723ZM83.6053 16.7679H86.4622L84.9317 12.5845L83.6053 16.7679ZM110.969 3.70766V10.4418H105.434V24.3184H98.317V10.4418H92.9092V3.70766H110.969ZM116.299 12.9927H113.544L115.584 10.0337C113.952 9.3705 113.136 8.39268 113.136 7.10026C112.931 4.90655 113.952 3.74167 116.197 3.60563C118.458 3.94574 119.547 5.11912 119.462 7.12577C119.411 8.48621 118.356 10.4418 116.299 12.9927ZM66.617 37.0947C68.8617 37.2308 70.0181 36.7886 70.0861 35.7683C69.9841 34.833 68.8277 34.3908 66.617 34.4418V37.0947ZM59.7807 48.3184V27.9117H67.4332C74.1164 27.9117 77.3475 30.5306 77.1264 35.7683C76.9223 40.6999 73.4532 43.1147 66.719 43.0126V48.3184H59.7807ZM85.4353 40.8699V42.0943H94.7203V48.3184H77.5788V27.7077H94.9244V34.3398H85.4353V35.5642H93.802V40.8699H85.4353ZM104.744 37.6049C104.983 37.6389 105.204 37.6559 105.408 37.6559C106.649 37.6559 107.414 37.1287 107.703 36.0744C107.584 35.0711 106.836 34.5694 105.459 34.5694C105.238 34.5694 105 34.5864 104.744 34.6204V37.6049ZM97.5001 48.3184V27.5801H104.107C110.739 27.5801 114.412 30.216 115.126 35.4877C115.007 39.0078 113.621 41.0655 110.969 41.6607L115.458 48.3184H108.418L104.847 42.9871V48.3184H97.5001ZM125.407 40.8699C125.798 40.921 126.172 40.9465 126.529 40.9465C128.655 40.9465 129.777 40.0367 129.896 38.2171C129.471 36.4995 128.213 35.6407 126.121 35.6407C125.883 35.6407 125.645 35.6492 125.407 35.6662V40.8699ZM117.959 48.3184V27.9117H125.305C132.668 27.9117 136.716 31.2788 137.447 38.013C137.022 44.8832 133.179 48.3184 125.917 48.3184H117.959ZM157.03 27.8097V40.3598C157.03 43.4378 156.231 45.742 154.632 47.2725C153.051 48.786 150.721 49.4747 147.643 49.3387C142.541 49.1176 139.684 46.2947 139.072 40.8699V27.8097H146.112V40.7679C146.367 41.9413 147.039 42.5365 148.128 42.5535C149.301 42.5705 150.024 41.9753 150.296 40.7679V27.8097H157.03ZM166.917 40.8699V42.0943H176.202V48.3184H159.061V27.7077H176.406V34.3398H166.917V35.5642H175.284V40.8699H166.917Z" fill="#FCE9D5"/>
</g>
<g filter="url(#filter1_d_286_648)">
<path d="M24.0253 19.5506L13.3723 41.4314C13.0992 41.9924 12.8324 42.5721 12.752 43.2042C12.2749 46.9567 16.4524 49.5341 18.9997 46.6844L20.3982 45.1199C24.8528 40.1364 32.0875 40.1254 36.5572 45.0954L37.9569 46.6517C40.5154 49.4964 44.6942 46.8942 44.1932 43.1347C44.1104 42.5133 43.8475 41.9434 43.5784 41.3915L32.9215 19.5355C32.3125 17.8935 30.3696 16.0972 28.4366 16.1095C26.5248 16.1217 24.6227 17.9246 24.0253 19.5506Z" fill="#FCE9D5"/>
<ellipse cx="37.8365" cy="9.49134" rx="8.76346" ry="5.47446" transform="rotate(25.546 37.8365 9.49134)" fill="#FCE9D5"/>
<ellipse cx="47.3388" cy="25.2991" rx="8.76346" ry="5.47446" transform="rotate(55.3824 47.3388 25.2991)" fill="#FCE9D5"/>
<ellipse cx="8.76346" cy="5.47446" rx="8.76346" ry="5.47446" transform="matrix(-0.565576 0.824696 0.824696 0.565576 10.1439 15.0332)" fill="#FCE9D5"/>
<ellipse cx="8.76346" cy="5.47446" rx="8.76346" ry="5.47446" transform="matrix(-0.900916 0.433994 0.433994 0.900916 24.6753 0.78418)" fill="#FCE9D5"/>
</g>
<defs>
<filter id="filter0_d_286_648" x="58.8732" y="3.60547" width="118.441" height="47.7526" filterUnits="userSpaceOnUse" color-interpolation-filters="sRGB">
<feFlood flood-opacity="0" result="BackgroundImageFix"/>
<feColorMatrix in="SourceAlpha" type="matrix" values="0 0 0 0 0 0 0 0 0 0 0 0 0 0 0 0 0 0 127 0" result="hardAlpha"/>
<feOffset dy="0.907567"/>
<feGaussianBlur stdDeviation="0.453783"/>
<feComposite in2="hardAlpha" operator="out"/>
<feColorMatrix type="matrix" values="0 0 0 0 0 0 0 0 0 0 0 0 0 0 0 0 0 0 0.13 0"/>
<feBlend mode="normal" in2="BackgroundImageFix" result="effect1_dropShadow_286_648"/>
<feBlend mode="normal" in="SourceGraphic" in2="effect1_dropShadow_286_648" result="shape"/>
</filter>
<filter id="filter1_d_286_648" x="2.09024" y="3.27197" width="52.8706" height="46.4421" filterUnits="userSpaceOnUse" color-interpolation-filters="sRGB">
<feFlood flood-opacity="0" result="BackgroundImageFix"/>
<feColorMatrix in="SourceAlpha" type="matrix" values="0 0 0 0 0 0 0 0 0 0 0 0 0 0 0 0 0 0 127 0" result="hardAlpha"/>
<feOffset dy="0.907567"/>
<feGaussianBlur stdDeviation="0.453783"/>
<feComposite in2="hardAlpha" operator="out"/>
<feColorMatrix type="matrix" values="0 0 0 0 0 0 0 0 0 0 0 0 0 0 0 0 0 0 0.13 0"/>
<feBlend mode="normal" in2="BackgroundImageFix" result="effect1_dropShadow_286_648"/>
<feBlend mode="normal" in="SourceGraphic" in2="effect1_dropShadow_286_648" result="shape"/>
</filter>
</defs>
</svg>
